<svg xmlns="http://www.w3.org/2000/svg" viewBox="0 0 500 500"><defs><style>.cls-1{fill:#00467b;}.cls-2{fill:#fff;}</style></defs><title>countdownAsset 6</title><g id="Layer_2" data-name="Layer 2"><g id="Layer_1-2" data-name="Layer 1"><circle class="cls-1" cx="250" cy="250" r="250"/><path class="cls-2" d="M304.69,125H195.31a23.44,23.44,0,0,0-23.43,23.44V351.56A23.44,23.44,0,0,0,195.31,375H304.69a23.45,23.45,0,0,0,23.44-23.44V148.44A23.45,23.45,0,0,0,304.69,125ZM250,359.38a15.63,15.63,0,1,1,15.63-15.63A15.61,15.61,0,0,1,250,359.38Zm54.69-52.74a5.88,5.88,0,0,1-5.86,5.86H201.17a5.88,5.88,0,0,1-5.86-5.86V154.3a5.87,5.87,0,0,1,5.86-5.86h97.66a5.87,5.87,0,0,1,5.86,5.86Z"/></g></g></svg>