<svg xmlns="http://www.w3.org/2000/svg" viewBox="0 0 500 500"><defs><style>.cls-1{fill:#00467b;}.cls-2{fill:#fff;}</style></defs><title>countdownAsset 1</title><g id="Layer_2" data-name="Layer 2"><g id="Layer_1-2" data-name="Layer 1"><circle class="cls-1" cx="250" cy="250" r="250"/><path class="cls-2" d="M385.42,125H114.58a31.25,31.25,0,0,0-31.25,31.25v187.5A31.25,31.25,0,0,0,114.58,375H385.42a31.25,31.25,0,0,0,31.25-31.25V156.25A31.25,31.25,0,0,0,385.42,125Zm0,31.25v26.57c-14.6,11.88-37.87,30.37-87.63,69.33-11,8.62-32.68,29.34-47.79,29.1-15.11.24-36.84-20.48-47.79-29.1-49.75-39-73-57.44-87.63-69.33V156.25ZM114.58,343.75V222.92c14.92,11.88,36.08,28.55,68.32,53.8,14.23,11.2,39.15,35.93,67.1,35.78,27.81.15,52.41-24.22,67.09-35.77,32.25-25.25,53.41-41.93,68.33-53.81V343.75Z"/></g></g></svg>