<svg xmlns="http://www.w3.org/2000/svg" viewBox="0 0 500 500"><defs><style>.cls-1{fill:#00467b;}.cls-2{fill:#fff;}</style></defs><title>countdownAsset 2</title><g id="Layer_2" data-name="Layer 2"><g id="Layer_1-2" data-name="Layer 1"><circle class="cls-1" cx="250" cy="250" r="250"/><path class="cls-2" d="M250,125a61.52,61.52,0,0,0-61.52,61.52c0,27.47,40.21,77.54,55.61,95.72a7.71,7.71,0,0,0,11.82,0c15.4-18.18,55.61-68.25,55.61-95.72A61.52,61.52,0,0,0,250,125Zm0,82a20.51,20.51,0,1,1,20.51-20.51A20.51,20.51,0,0,1,250,207ZM119.2,230.44A15.64,15.64,0,0,0,109.38,245V367.18a7.81,7.81,0,0,0,10.71,7.25l67.41-30.68V229.94a147.71,147.71,0,0,1-10.38-22.66ZM250,300.62a23.35,23.35,0,0,1-17.83-8.28c-9.6-11.33-19.81-24.23-29-37.46v88.87L296.88,375V254.88c-9.24,13.23-19.45,26.14-29.05,37.46A23.35,23.35,0,0,1,250,300.62Zm129.91-96.93L312.5,234.38V375l68.3-27.32a15.65,15.65,0,0,0,9.83-14.51V211a7.82,7.82,0,0,0-10.72-7.26Z"/></g></g></svg>