<svg xmlns="http://www.w3.org/2000/svg" viewBox="0 0 500 500"><defs><style>.cls-1{fill:#00467b;}.cls-2{fill:#fff;}</style></defs><title>countdownAsset 5</title><g id="Layer_2" data-name="Layer 2"><g id="Layer_1-2" data-name="Layer 1"><circle class="cls-1" cx="250" cy="250" r="250"/><path class="cls-2" d="M250,125C171.09,125,107.14,177,107.14,241.07c0,27.68,11.94,53,31.81,72.94-7,28.12-30.3,53.18-30.58,53.46a4.44,4.44,0,0,0-.84,4.85,4.37,4.37,0,0,0,4.08,2.68c37,0,64.73-17.75,78.46-28.68A170.22,170.22,0,0,0,250,357.14c78.91,0,142.86-51.95,142.86-116.07S328.91,125,250,125ZM178.68,276.79h-6.8a4.48,4.48,0,0,1-4.47-4.47v-8.93a4.48,4.48,0,0,1,4.47-4.46h6.86c3.35,0,5.8-1.95,5.8-3.68a2.92,2.92,0,0,0-1.17-2.12l-12.22-10.5A20.62,20.62,0,0,1,163.73,227c0-11.88,10.6-21.54,23.66-21.54h6.81a4.48,4.48,0,0,1,4.46,4.47v8.93a4.48,4.48,0,0,1-4.46,4.46h-6.87c-3.35,0-5.8,1.95-5.8,3.68a3,3,0,0,0,1.17,2.12l12.22,10.49a20.62,20.62,0,0,1,7.42,15.69c.06,11.88-10.6,21.54-23.66,21.54Zm107-4.47a4.47,4.47,0,0,1-4.46,4.47h-8.93a4.48,4.48,0,0,1-4.46-4.47V234.26L254,265.4a4.46,4.46,0,0,1-8,0l-13.9-31.14v38.06a4.48,4.48,0,0,1-4.46,4.47h-8.93a4.47,4.47,0,0,1-4.46-4.47v-58a8.94,8.94,0,0,1,8.92-8.93h8.93a8.86,8.86,0,0,1,8,4.91L250,230l9.88-19.75a8.93,8.93,0,0,1,8-4.91h8.93a9,9,0,0,1,8.92,8.93Zm27,4.47H305.8a4.48,4.48,0,0,1-4.46-4.47v-8.93a4.48,4.48,0,0,1,4.46-4.46h6.87c3.35,0,5.8-1.95,5.8-3.68a3,3,0,0,0-1.17-2.12l-12.22-10.5A20.58,20.58,0,0,1,297.66,227c0-11.88,10.6-21.54,23.66-21.54h6.81a4.48,4.48,0,0,1,4.46,4.47v8.93a4.48,4.48,0,0,1-4.46,4.46h-6.87c-3.35,0-5.8,1.95-5.8,3.68a2.92,2.92,0,0,0,1.17,2.12l12.22,10.49a20.65,20.65,0,0,1,7.42,15.69c.06,11.88-10.54,21.54-23.6,21.54Z"/></g></g></svg>