<?xml version="1.0" encoding="utf-8"?>
<!-- Generator: Adobe Illustrator 23.0.3, SVG Export Plug-In . SVG Version: 6.00 Build 0)  -->
<svg version="1.1" id="Layer_1" focusable="false" xmlns="http://www.w3.org/2000/svg" xmlns:xlink="http://www.w3.org/1999/xlink"
	 x="0px" y="0px" viewBox="0 0 512 512" style="enable-background:new 0 0 512 512;" xml:space="preserve">
<style type="text/css">
	.st0{fill:#91C4EB;}
</style>
<path class="st0" d="M505,19.1C503.7,13,499,8.2,492.8,6.9C460.6,0,435.5,0,410.4,0C307.2,0,245.3,55.2,199.1,128H94.9
	c-18.1,0-34.7,10.3-42.9,26.5L2.6,253.3c-5.9,11.9-1.1,26.3,10.8,32.2c3.3,1.7,7,2.5,10.7,2.5h103.8l-22.5,22.5
	c-12.5,12.5-12.5,32.8,0,45.3l50.9,50.9c12.5,12.5,32.8,12.5,45.3,0c0,0,0,0,0,0l22.5-22.5V488c0,13.3,10.7,24,24,24
	c3.7,0,7.4-0.9,10.7-2.5l98.7-49.4c16.3-8.1,26.5-24.7,26.5-42.9V312.8c72.6-46.3,128-108.4,128-211.1C512,76.5,512,51.3,505,19.1
	L505,19.1z M384,168c-22.1,0-40-17.9-40-40s17.9-40,40-40s40,17.9,40,40S406.1,168,384,168z"/>
</svg>
