<?xml version="1.0" encoding="utf-8"?>
<!-- Generator: Adobe Illustrator 23.0.3, SVG Export Plug-In . SVG Version: 6.00 Build 0)  -->
<svg version="1.1" id="Layer_1" focusable="false" xmlns="http://www.w3.org/2000/svg" xmlns:xlink="http://www.w3.org/1999/xlink"
	 x="0px" y="0px" viewBox="0 0 512 512" style="enable-background:new 0 0 512 512;" xml:space="preserve">
<style type="text/css">
	.st0{fill:#91C4EB;}
</style>
<path class="st0" d="M502.7,265l-80.3-80.4l47.8-47.9c13.1-13.1,13.1-34.4,0-47.5l-47.5-47.5c-13.1-13.1-34.4-13.1-47.5,0
	l-47.8,47.9L247.1,9.3C240.8,3.1,232.7,0,224.5,0S208.2,3.1,202,9.3L105.3,106c-12.4,12.4-12.4,32.6,0,45.1l80.3,80.4l-9.8,9.8
	C122.1,217,59.6,218.6,7.3,246.7c-8.5,4.6-9.6,16.4-2.8,23.2L112,377.4l-17.8,17.8c-2.6-0.7-5-1.6-7.8-1.6c-17.7,0-32,14.3-32,32
	s14.3,32,32,32s32-14.3,32-32c0-2.8-0.9-5.2-1.6-7.8l17.8-17.8l107.5,107.5c6.8,6.8,18.7,5.7,23.2-2.8
	c28.1-52.3,29.7-114.8,5.4-168.5l9.9-9.9l80.3,80.4c6.2,6.2,14.4,9.3,22.5,9.3s16.3-3.1,22.5-9.3l96.7-96.7
	C515.1,297.6,515.1,277.4,502.7,265L502.7,265z M150.7,128.5l73.8-73.8l68.9,68.9l-73.8,73.8L150.7,128.5z M383.5,361.3l-68.9-68.9
	l73.8-73.8l68.9,68.9L383.5,361.3z"/>
</svg>
